<?xml version="1.0" encoding="utf-8"?>
<!-- Generator: Adobe Illustrator 21.0.2, SVG Export Plug-In . SVG Version: 6.00 Build 0)  -->
<svg version="1.1" id="Layer_1" xmlns="http://www.w3.org/2000/svg" xmlns:xlink="http://www.w3.org/1999/xlink" x="0px" y="0px"
	 viewBox="0 0 85 85" style="enable-background:new 0 0 85 85;" xml:space="preserve">
<style type="text/css">
	.st0{fill-rule:evenodd;clip-rule:evenodd;fill:#FFFFFF;}
	.st1{fill-rule:evenodd;clip-rule:evenodd;fill:#8CC8EE;}
</style>
<circle class="st0" cx="42.9" cy="42.1" r="42.1"/>
<g>
	<path class="st1" d="M34.1,24.9c2.3,0,4.5,0.5,6.6,1.2c2.5,0.8,5,2,7.3,3.2c3.1,1.7,6.1,3.6,9,5.7c1,0.8,2.1,1.6,3,2.5
		c0.1,0.1,0.2,0.2,0.2,0.2c0.6,0.6,0.7,1.4,0.4,2.1c-0.3,0.9-0.8,1.6-1.4,2.3c-1.7,1.8-3.8,3.1-6.1,4c-1,0.4-2,0.6-3,0.5
		c-0.7,0-1.3-0.1-1.9-0.5c-0.3-0.2-0.4-0.4-0.1-0.7c0.2-0.2,0.4-0.4,0.6-0.6c0.7-0.6,1.4-1.2,2.1-1.8c0.3-0.3,0.6-0.7,0.8-1.1
		c0.4-0.8,0.2-1.5-0.4-2.1c-0.3-0.4-0.7-0.7-1.1-1c-2.3-1.9-4.7-3.5-7.3-5.1c-0.9-0.5-1.8-1.1-2.7-1.5c-1.5-0.7-3-1.4-4.7-1.6
		c-2.5-0.4-4.8,0.3-6.7,2c-1.5,1.3-2.6,2.8-3.5,4.5c-0.6,1.3-1.2,2.6-1.8,3.8c-0.5,1.1-1.2,2.2-1.9,3.3c-0.6,0.8-1.3,1.3-2.2,1.7
		c-2.6,1-5.4,1.7-8.2,2C10.6,48,10,48,9.5,47.9c-0.7-0.1-1.2-0.9-1.1-1.5c0-0.1,0-0.2,0.1-0.2c0.5-0.8,1-1.5,1.6-2.3
		c0.7-1,1.5-1.9,2.3-2.8c1.3-1.5,2.7-2.9,4.2-4.3c1.9-1.8,3.8-3.5,5.7-5.2c1.6-1.4,3.2-2.8,4.9-4.1c0.7-0.5,1.3-1,2-1.4
		c1.2-0.6,2.2-0.8,3.7-0.9C33.4,24.9,33.7,24.9,34.1,24.9z"/>
	<path class="st1" d="M51.8,59.2c-2,0-4-0.4-6-1c-2.9-0.9-5.6-2.1-8.2-3.6c-1.9-1-3.8-2.2-5.6-3.4c-1.8-1.2-3.6-2.5-5.2-3.9
		c-0.4-0.3-0.8-0.7-1.1-1.1c-0.5-0.6-0.7-1.2-0.5-2c0.2-0.9,0.7-1.7,1.4-2.4c1.1-1.3,2.5-2.3,4-3.1c1.1-0.6,2.3-1.1,3.5-1.3
		c0.9-0.2,1.8-0.3,2.7-0.1c0.4,0.1,0.7,0.2,1,0.4c0.3,0.2,0.3,0.3,0.1,0.6c-0.2,0.3-0.5,0.5-0.7,0.7c-0.5,0.4-1.1,0.9-1.6,1.4
		c-0.4,0.4-0.8,0.8-1.1,1.3c-0.5,0.9-0.3,1.6,0.3,2.3c0.3,0.3,0.6,0.6,1,0.8c2.9,2.3,5.9,4.4,9.1,6.2c1.4,0.8,2.8,1.5,4.3,1.9
		c1.7,0.5,3.4,0.5,5.1,0c1.3-0.4,2.3-1.2,3.3-2.1c1.6-1.5,2.7-3.2,3.6-5.2c0.5-1.2,1-2.4,1.6-3.5c0.6-1.1,1.3-2.2,2.1-3.2
		c0.3-0.3,0.6-0.5,1-0.7c0.9-0.5,1.9-0.8,2.9-1.1c1.7-0.5,3.5-0.9,5.3-1.1c0.8-0.1,1.5-0.1,2.3,0c0.4,0.1,1,0.6,1,1
		c0,0.2,0,0.4-0.1,0.6c-0.2,0.4-0.4,0.7-0.7,1c-0.8,1.2-1.6,2.3-2.5,3.3c-0.8,0.9-1.6,1.8-2.5,2.7c-0.6,0.6-1.3,1.3-1.9,1.9
		c-1.4,1.4-2.8,2.7-4.2,4c-1.8,1.7-3.7,3.3-5.7,4.9c-0.8,0.7-1.7,1.3-2.5,2c-1.2,0.8-2.5,1.3-3.8,1.5C53.1,59.1,52.5,59.2,51.8,59.2
		z"/>
	<path class="st1" d="M43.1,45.1c-1.3,0-2.5-0.3-3.5-0.9c-0.3-0.2-0.5-0.4-0.7-0.7c-0.7-0.9-0.7-2.1,0.1-3c0.6-0.6,1.2-1,2-1.2
		c1.7-0.5,3.3-0.4,4.9,0.4c0.4,0.2,0.8,0.5,1.1,0.9c0.8,1,0.7,2.3-0.3,3.2c-0.8,0.7-1.8,1.1-2.9,1.2C43.5,45,43.2,45.1,43.1,45.1z"
		/>
</g>
</svg>
